<?xml version="1.0" encoding="utf-8"?>
<!-- Generator: Adobe Illustrator 28.0.0, SVG Export Plug-In . SVG Version: 6.00 Build 0)  -->
<svg version="1.2" baseProfile="tiny" xmlns="http://www.w3.org/2000/svg" xmlns:xlink="http://www.w3.org/1999/xlink" x="0px" y="0px" viewBox="0 0 100 20" overflow="visible" xml:space="preserve">
	<circle fill="none" stroke="#FFFFFF" stroke-width="2" stroke-miterlimit="10" cx="18.9" cy="10" r="8.8"/>
	<circle fill="#FFFFFF" cx="18.9" cy="9.9" r="2.5"/>
	<rect x="32.9" y="0.5" fill="#FFFFFF" width="2.2" height="19"/>
	<circle fill="none" stroke="#FFFFFF" stroke-width="2" stroke-miterlimit="10" cx="43.2" cy="3.8" r="2.5"/>
	<circle fill="none" stroke="#FFFFFF" stroke-width="2" stroke-miterlimit="10" cx="43.2" cy="16.2" r="2.5"/>
	<polygon fill="#FFFFFF" points="56,0.4 58.2,0.4 58.2,19.4 56,19.4 56,7.6 53,17 53,19.4 50.8,19.4 50.8,0.4 53.1,0.4 53.1,12.2 56,2.9 	"/>
	<polygon fill="#FFFFFF" points="61.7,0.4 69.1,0.4 69.1,8.6 73,8.6 73,0.4 80.3,0.4 80.3,2.5 75.2,2.5 75.2,17.3 80.3,17.3 80.3,19.5 73,19.5 73,10.5 69.1,10.5 69.1,19.5 61.7,19.5 61.7,17.2 66.9,17.2 66.9,2.5 61.7,2.5 	"/>
	<circle fill="none" stroke="#FFFFFF" stroke-width="2" stroke-miterlimit="10" cx="87.4" cy="3.8" r="2.5"/>
	<circle fill="none" stroke="#FFFFFF" stroke-width="2" stroke-miterlimit="10" cx="87.4" cy="16.2" r="2.5"/>
</svg>
